<svg version="1.1" id="Layer_1" xmlns="http://www.w3.org/2000/svg" x="0" y="0" viewBox="0 0 463.002 463.002" style="enable-background:new 0 0 463.002 463.002" xml:space="preserve"><path d="M359.501 16.002c-36.892 0-67.344 28.087-71.105 64H167.539l-5.893-28.484c-2.267-10.958-10.27-19.963-20.885-23.501L57.873.387a7.5 7.5 0 0 0-4.743 14.231l82.888 27.629a16.55 16.55 0 0 1 10.94 12.31l5.265 25.445H39.501a7.5 7.5 0 0 0-6.174 11.758l158.674 230.078v77.664c0 26.743-21.757 48.5-48.5 48.5a7.5 7.5 0 0 0 0 15h112a7.5 7.5 0 0 0 0-15c-26.743 0-48.5-21.757-48.5-48.5v-77.664l118.314-171.555a71.054 71.054 0 0 0 34.186 8.719c39.425 0 71.5-32.075 71.5-71.5s-32.075-71.5-71.5-71.5zm-305.717 79h101.541l13.448 65H98.612l-44.828-65zm160.772 353h-30.11a63.934 63.934 0 0 0 15.055-18.582 63.95 63.95 0 0 0 15.055 18.582zm-15.054-141.709-90.544-131.29h62.92l20.28 98.02a7.501 7.501 0 0 0 8.863 5.825 7.5 7.5 0 0 0 5.824-8.865l-19.651-94.98h21.716c3.374 13.759 15.806 24 30.591 24 14.785 0 27.216-10.241 30.591-24h19.954l-90.544 131.29zm54.678-131.291c-2.737 5.334-8.282 9-14.679 9s-11.942-3.666-14.679-9h29.358zm-29.357-15c2.737-5.334 8.282-9 14.678-9 6.396 0 11.942 3.666 14.679 9h-29.357zm75.567 0h-30.299c-3.374-13.759-15.806-24-30.591-24-.787 0-1.564.039-2.336.096-4.85-13.812-16.527-28.754-36.459-31.998-4.086-.671-7.942 2.108-8.607 6.197a7.499 7.499 0 0 0 6.197 8.607c15.37 2.502 22.023 14.991 24.562 21.871-6.867 4.292-11.967 11.151-13.947 19.227h-24.82l-13.448-65h117.754c1.951 18.633 11.097 35.145 24.591 46.734l-12.597 18.266zm21.159-30.68c-9.638-8.754-16.231-20.79-18.035-34.32h41.704l-23.669 34.32zm37.952 14.68a56.135 56.135 0 0 1-25.606-6.161l26.669-38.67 17.634 17.634c1.464 1.464 3.384 2.197 5.303 2.197s3.839-.732 5.303-2.197a7.5 7.5 0 0 0 0-10.606l-18.697-18.697 18.697-18.697a7.5 7.5 0 0 0 0-10.606 7.5 7.5 0 0 0-10.606 0l-18.697 18.697-18.697-18.697a7.5 7.5 0 0 0-10.606 0 7.5 7.5 0 0 0 0 10.606l11.197 11.197h-37.881c3.682-27.619 27.377-49 55.987-49 31.154 0 56.5 25.346 56.5 56.5s-25.346 56.5-56.5 56.5z"/></svg>