<svg version="1.1" id="Layer_1" xmlns="http://www.w3.org/2000/svg" x="0" y="0" viewBox="0 0 463 463" style="enable-background:new 0 0 463 463" xml:space="preserve"><path d="M447.5 364h-24.927a23.222 23.222 0 0 0 1.542-6.698l6.864-89.227a7.502 7.502 0 0 0-1.975-5.671 7.379 7.379 0 0 0-.77-.711l18.382-43.03a7.502 7.502 0 0 0-3.951-9.844l-22.071-9.428a7.475 7.475 0 0 0-5.707-.075 7.5 7.5 0 0 0-1.206-5.532 7.5 7.5 0 0 0-4.815-3.125l-23.6-4.366a7.466 7.466 0 0 0-4.249.457l-.635-9.079c-.289-4.132-3.878-7.245-8.005-6.959l-23.941 1.674a7.502 7.502 0 0 0-6.959 8.005l1.047 14.976-.762-2.636a7.498 7.498 0 0 0-9.288-5.121l-23.055 6.667a7.494 7.494 0 0 0-4.484 3.583 7.505 7.505 0 0 0-.637 5.705L320.615 260H319.5a7.5 7.5 0 0 0-7.478 8.075L316.324 324H303.5a7.5 7.5 0 0 0-7.354 8.971L302.352 364h-36.033A31.31 31.31 0 0 0 271 347.5v-1.734c9.29-3.138 16-11.93 16-22.266s-6.71-19.128-16-22.266v-20.179c4.765-2.647 8-7.728 8-13.555v-16c0-10.024-6.987-24.303-40.275-35.399C215.315 208.297 184.338 204 151.5 204s-63.815 4.297-87.225 12.101C30.987 227.197 24 241.475 24 251.5v16c0 5.827 3.235 10.908 8 13.555v20.179c-9.29 3.138-16 11.93-16 22.266s6.71 19.128 16 22.266v1.734a31.31 31.31 0 0 0 4.681 16.5H15.5C6.953 364 0 370.953 0 379.5v16c0 8.547 6.953 15.5 15.5 15.5h432c8.547 0 15.5-6.953 15.5-15.5v-16c0-8.547-6.953-15.5-15.5-15.5zm-43.179-107.551c.137-.242.264-.492.376-.754l16.901-39.562 8.277 3.536L412.645 260h-8.981l.657-3.551zM384 234.359c.059-.246.105-.497.139-.751l5.772-31.199 8.85 1.637L388.409 260h-9.152L384 234.359zm-18.06-48.158 3.213 45.957L364.002 260h-1.924l-5.116-73.171 8.978-.628zM415.401 275l-6.243 81.152c-.338 4.401-4.061 7.848-8.475 7.848h-24.035l6.206-31.029A7.5 7.5 0 0 0 375.5 324h-44.131l-3.77-49h87.802zm-85.966-70.896L345.598 260h-9.369l-15.44-53.396 8.646-2.5zM366.351 339l-4.92 24.599a.5.5 0 0 1-.49.401h-42.883a.502.502 0 0 1-.49-.402L312.648 339h53.703zM39 251.5c0-8.239 16.171-16.553 30.019-21.169 6.45-2.15 13.551-4.007 21.14-5.57.013.014.024.029.038.042l24 24c1.464 1.464 3.384 2.197 5.303 2.197s3.839-.732 5.303-2.197a7.5 7.5 0 0 0 0-10.606l-16.473-16.473c5.517-.727 11.21-1.31 17.039-1.749l36.828 36.828c1.464 1.464 3.384 2.197 5.303 2.197s3.839-.732 5.303-2.197a7.5 7.5 0 0 0 0-10.606l-27.15-27.15c1.94-.031 3.889-.047 5.846-.047 4.428 0 8.81.09 13.143.249l29.554 29.554c1.464 1.465 3.384 2.197 5.303 2.197s3.839-.732 5.303-2.197a7.5 7.5 0 0 0 0-10.606l-17.328-17.329c17.389 1.856 33.293 5.058 46.506 9.463C247.829 234.947 264 243.26 264 251.5v16a.5.5 0 0 1-.5.5h-224a.5.5 0 0 1-.5-.5v-16zM256 283v17h-13.394l-17-17H256zm-34.607 17h-26.787l-17-17h26.787l17 17zm-48 0h-26.787l-17-17h26.787l17 17zm-48 0H98.606l-17-17h26.787l17 17zm-47.999 0H47v-17h13.394l17 17zM31 323.5c0-4.687 3.813-8.5 8.5-8.5h224c4.687 0 8.5 3.813 8.5 8.5s-3.813 8.5-8.5 8.5h-224c-4.687 0-8.5-3.813-8.5-8.5zM256 347v.5c0 9.098-7.402 16.5-16.5 16.5h-176c-9.098 0-16.5-7.402-16.5-16.5v-.5h209zm192 48.5a.5.5 0 0 1-.5.5h-432a.5.5 0 0 1-.5-.5v-16a.5.5 0 0 1 .5-.5h432a.5.5 0 0 1 .5.5v16zM136 139.535c0 12.625 5.348 19.305 9.646 24.672 3.689 4.608 6.354 7.937 6.354 15.297a7.5 7.5 0 0 0 15 0c0-12.625-5.348-19.304-9.645-24.672-3.689-4.608-6.355-7.938-6.355-15.297 0-7.37 2.667-10.704 6.357-15.317 4.296-5.371 9.643-12.055 9.643-24.687 0-12.637-5.346-19.325-9.642-24.699C153.667 70.215 151 66.879 151 59.5a7.5 7.5 0 0 0-15 0c0 12.637 5.346 19.325 9.642 24.699 3.691 4.618 6.358 7.954 6.358 15.333 0 7.37-2.667 10.704-6.357 15.317-4.296 5.37-9.643 12.055-9.643 24.686zM176.484 147.027a7.492 7.492 0 0 0 5.879-2.842C187.776 137.419 199 123.362 199 99.531c0-9.68-1.861-18.805-5.532-27.123a7.5 7.5 0 0 0-9.89-3.833 7.5 7.5 0 0 0-3.833 9.89C182.568 84.862 184 91.95 184 99.531c0 18.514-8.295 28.964-13.303 35.226a7.5 7.5 0 0 0 5.787 12.27zM116.325 170.952a7.5 7.5 0 0 0 6.866-10.51C120.41 154.09 119 147.056 119 139.535c0-18.59 8.368-29.051 13.369-35.304.135-.169.263-.344.383-.524 1.68-2.519 1.672-5.852-.008-8.371a7.5 7.5 0 0 0-12.55.104C114.636 102.405 104 116.342 104 139.535c0 9.604 1.834 18.663 5.451 26.924a7.502 7.502 0 0 0 6.874 4.493z"/></svg>