<?xml version="1.0" encoding="utf-8"?>
<!-- Generator: Adobe Illustrator 17.1.0, SVG Export Plug-In . SVG Version: 6.00 Build 0)  -->
<!DOCTYPE svg PUBLIC "-//W3C//DTD SVG 1.1//EN" "http://www.w3.org/Graphics/SVG/1.1/DTD/svg11.dtd">
<svg version="1.1" id="menu-restaurant" xmlns="http://www.w3.org/2000/svg" xmlns:xlink="http://www.w3.org/1999/xlink" x="0px" y="0px" viewBox="0 0 1010 982.9574" enable-background="new 0 0 1010 982.9574" xml:space="preserve">
<g id="menu-restaurant-menu-restaurant">
	<g>
		<g>
			<path fill="#5065A1" d="M795.125,982.9574c-2.9395,0-5.8984-0.1426-8.8574-0.4512
				c-26.7949-2.6308-50.7129-17.0146-65.6524-39.4335L540.4873,677.8334c-8.1162-12.1856-17.4658-23.5899-27.9053-34.0283
				l-45.4839-42.8643c-8.4555-7.9726-8.8461-21.2881-0.873-29.7334c7.9829-8.4668,21.2778-8.8359,29.7437-0.8838l45.9365,43.2959
				c12.8222,12.8223,23.9599,26.3838,33.4941,40.748l180.1279,265.2188c8.0137,12.041,20.6924,19.6446,34.8497,21.041
				c14.1992,1.5215,28.0898-3.5742,38.1796-13.6844c8.9805-8.959,13.8907-20.8369,13.8907-33.4738
				c0-12.6582-4.9317-24.5547-13.8907-33.5146L517.7305,548.0082c-8.1992-8.2402-8.1797-21.5557,0.0508-29.7754
				c8.2402-8.1777,21.5761-8.1582,29.7539,0.0625l310.8163,311.9258c16.8906,16.8906,26.1797,39.3711,26.1797,63.248
				c0,23.8985-9.2891,46.3575-26.2208,63.2286C841.4199,973.6293,818.7754,982.9574,795.125,982.9574L795.125,982.9574z"></path>
		</g>
		<g>
			<path fill="#5065A1" d="M419.7339,552.0141c-5.7739,0-11.5068-2.3418-15.668-6.9864l-22.9321-25.541
				c-8.0859-8.0449-21.1856-11.6719-33.3711-8.6201l-20.6821,5.1885c-41.3433,10.3564-85.6973-1.9317-115.7701-32.0659
				l-48.5459-51.2071C56.1387,326.1664-0.144,178.1552,8.7539,27.1034c0.4824-8.2812,5.7842-15.5039,13.541-18.4424
				c7.7163-2.9795,16.5005-1.0581,22.3672,4.8291L491.8389,462.331c8.1987,8.2294,8.1782,21.5551-0.062,29.7539
				c-8.2193,8.1889-21.5552,8.1889-29.754-0.0616L50.354,78.8241c5.1475,121.5752,55.707,237.7461,142.5552,324.6045
				l48.5561,51.2173c19.3057,19.3154,48.3301,27.3393,75.3824,20.5893l20.6923-5.1884
				c26.5176-6.6167,54.8955,1.2534,74.1392,20.5175l23.7026,26.3541c7.7671,8.6298,7.0479,21.9453-1.603,29.7128
				C429.7617,550.2475,424.7378,552.0141,419.7339,552.0141L419.7339,552.0141z"></path>
		</g>
		<g>
			<path fill="#5065A1" d="M666.6963,501.8051c-19.9932,0-39.9668-7.6035-55.2139-22.7993l-80.5508-80.6119
				c-30.3393-30.4013-30.3496-79.851-0.0195-110.2631L812.9609,6.1644c8.2188-8.2192,21.5342-8.2192,29.7539,0
				c8.2188,8.2193,8.2188,21.545,0,29.7544L560.6865,317.8646c-13.9521,13.9937-13.9736,36.792,0,50.7857l80.5498,80.581
				c14.0137,13.9932,36.8438,14.0137,50.8575,0.0205L974.0811,167.244c8.2197-8.2192,21.5352-8.2192,29.7548,0
				c8.2188,8.2193,8.2188,21.5347,0,29.7544L721.8477,479.0058C706.6631,494.2016,686.6895,501.8051,666.6963,501.8051
				L666.6963,501.8051z"></path>
		</g>
		<g>
			<path fill="#5065A1" d="M714.2461,370.5512c-5.3848,0-10.7676-2.0552-14.8779-6.1646c-8.2198-8.2095-8.2198-21.5351,0-29.7544
				l223.4853-223.5473c8.2197-8.2193,21.5352-8.2193,29.7539,0c8.2207,8.2094,8.2207,21.5351,0,29.7544L729.123,364.3866
				C725.0127,368.496,719.6289,370.5512,714.2461,370.5512L714.2461,370.5512z"></path>
		</g>
		<g>
			<path fill="#5065A1" d="M660.5117,316.8168c-5.3847,0-10.7676-2.0552-14.8779-6.1646c-8.2197-8.2197-8.2197-21.5351,0-29.7544
				L869.1602,57.3715c8.2197-8.2197,21.5352-8.2197,29.7539,0c8.2207,8.2192,8.2207,21.5346,0,29.7539L675.3887,310.6522
				C671.2783,314.7616,665.8945,316.8168,660.5117,316.8168L660.5117,316.8168z"></path>
		</g>
		<g>
			<path fill="#5065A1" d="M141.2505,959.9027c-24.083,0-47.4053-9.6172-64.4815-26.6933
				c-17.9384-17.877-27.6582-42.6787-26.6616-68.0567c1.0069-25.377,12.6685-49.3574,31.9942-65.7949l285.9428-243.5625
				c11.3736-9.7402,59.6934-57.0312,72.9571-70.2651l103.4311-103.3897c8.2197-8.2197,21.5342-8.2197,29.7549,0
				c8.2188,8.2193,8.2188,21.5449,0,29.7539L470.7456,515.2953c-11.5278,11.5059-62.1284,61.1719-75.3823,72.5156L109.3799,831.4125
				c-10.562,8.9805-16.6753,21.5557-17.2197,35.4053c-0.5445,13.8495,4.541,26.8564,14.3427,36.618
				c9.812,9.8214,22.9014,14.6914,36.6895,14.3419c13.8393-0.5547,26.3843-6.6572,35.3535-17.1992l243.6128-285.8906
				c11.5483-13.624,62.8989-65.8379,72.5156-75.4541L598.126,435.7924c8.2197-8.2193,21.5342-8.2193,29.7539,0
				c8.2197,8.2192,8.2197,21.5454,0,29.7544L524.4395,568.9672c-13.7784,13.8086-60.6597,61.707-70.2149,72.9678L210.5913,927.8471
				c-16.4077,19.2949-40.3677,30.9658-65.6934,31.9736C143.6753,959.8822,142.4629,959.9027,141.2505,959.9027L141.2505,959.9027z"></path>
		</g>
	</g>
	<g>
		<g>
			<path fill="#5065A1" d="M120.3525,777.6781C42.7407,692.2377,0,581.6254,0,466.225c0-69.7315,25.8501-157.5659,51.4639-213.6738
				l38.2817,17.4868c-23.7231,51.957-47.6621,132.7739-47.6621,196.187c0,104.9199,38.8569,205.4844,109.4204,283.1377
				L120.3525,777.6781L120.3525,777.6781z"></path>
		</g>
		<g>
			<path fill="#5065A1" d="M463.1836,929.3676c-84.9473,0-167.9941-23.1786-240.1812-67.0497l21.8433-35.96
				c65.6011,39.8643,141.1064,60.9258,218.3379,60.9258c67.8721,0,135.3125-16.5205,194.9648-47.7539l19.5205,37.2754
				C612.0166,911.2025,537.8359,929.3676,463.1836,929.3676L463.1836,929.3676z"></path>
		</g>
		<g>
			<path fill="#5065A1" d="M780.6377,803.4262l-28.8096-30.6582c85.4005-80.3243,132.4356-189.1914,132.4356-306.543
				c0-60.3921-12.4942-118.6782-37.1309-173.2344l38.3438-17.3222c27.123,60.0424,40.8711,124.1538,40.8711,190.5566
				C926.3477,595.3109,874.6055,715.0668,780.6377,803.4262L780.6377,803.4262z"></path>
		</g>
		<g>
			<path fill="#5065A1" d="M157.6685,176.4291l-30.5347-28.9731C215.5024,54.3197,334.8481,3.0204,463.1836,3.0204
				c97.7695,0,191.2451,30.1035,270.3164,87.064l-24.5762,34.1518c-71.8789-51.7719-156.8672-79.1323-245.7402-79.1323
				C346.5093,45.1039,238.0029,91.7387,157.6685,176.4291L157.6685,176.4291z"></path>
		</g>
	</g>
	<g>
		<g>
			<path fill="#5065A1" d="M278.4424,634.0443c-41.8364-46.0078-64.8819-105.6191-64.8819-167.8193h42.0835
				c0,51.7207,19.1508,101.2627,53.9292,139.5039L278.4424,634.0443L278.4424,634.0443z"></path>
		</g>
		<g>
			<path fill="#5065A1" d="M463.2046,715.7865c-26.8569,0-53.2412-4.2119-78.4341-12.5342l13.1924-39.9472
				c52.3061,17.2617,112.4512,12.5352,161.2646-13.1094l19.5616,37.2754C543.5078,705.9848,503.5308,715.7865,463.2046,715.7865
				L463.2046,715.7865z"></path>
		</g>
		<g>
			<path fill="#5065A1" d="M634.25,647.9555l-28.8086-30.6582c42.083-39.5967,65.2822-93.2696,65.2822-151.0723h42.083
				C712.8066,534.7543,684.1836,601.0023,634.25,647.9555L634.25,647.9555z"></path>
		</g>
		<g>
			<path fill="#5065A1" d="M312.5942,323.3715l-30.5146-28.9732c47.6416-50.1797,111.9687-77.8173,181.125-77.8173
				c44.7231,0,88.646,11.9799,126.9692,34.6552l-21.412,36.2271c-31.8712-18.8433-68.3647-28.7989-105.5571-28.7989
				C405.6992,258.6644,352.2114,281.6478,312.5942,323.3715L312.5942,323.3715z"></path>
		</g>
	</g>
</g>
</svg>
