<svg version="1.1" id="menu-restaurant" xmlns="http://www.w3.org/2000/svg" x="0" y="0" viewBox="0 0 1010 982.957" xml:space="preserve"><g id="menu-restaurant-menu-restaurant"><path fill="#5065A1" d="M795.125 982.957c-2.94 0-5.898-.142-8.857-.45-26.795-2.632-50.713-17.015-65.653-39.434l-180.128-265.24a222.808 222.808 0 0 0-27.905-34.028l-45.484-42.864c-8.455-7.973-8.846-21.288-.873-29.734 7.983-8.466 21.278-8.835 29.744-.883l45.936 43.296c12.823 12.822 23.96 26.383 33.494 40.748l180.128 265.218c8.014 12.041 20.693 19.645 34.85 21.041 14.2 1.522 28.09-3.574 38.18-13.684 8.98-8.96 13.89-20.837 13.89-33.474 0-12.658-4.931-24.555-13.89-33.514L517.73 548.008c-8.199-8.24-8.18-21.556.051-29.775 8.24-8.178 21.576-8.158 29.754.062l310.817 311.926c16.89 16.89 26.18 39.371 26.18 63.248 0 23.899-9.29 46.358-26.222 63.229-16.89 16.931-39.535 26.26-63.185 26.26zM419.734 552.014c-5.774 0-11.507-2.342-15.668-6.986l-22.932-25.541c-8.086-8.045-21.186-11.672-33.371-8.62l-20.682 5.188c-41.344 10.356-85.698-1.932-115.77-32.066l-48.546-51.207C56.139 326.166-.144 178.155 8.754 27.103a21.025 21.025 0 0 1 13.54-18.442c7.717-2.98 16.501-1.058 22.368 4.83L491.84 462.33c8.199 8.23 8.178 21.555-.062 29.754-8.22 8.189-21.555 8.189-29.754-.062L50.354 78.824C55.501 200.4 106.061 316.57 192.909 403.43l48.556 51.217c19.306 19.315 48.33 27.34 75.383 20.59l20.692-5.19c26.518-6.616 54.895 1.254 74.14 20.518l23.702 26.354c7.767 8.63 7.048 21.946-1.603 29.713a20.91 20.91 0 0 1-14.045 5.383zM666.696 501.805c-19.993 0-39.967-7.603-55.214-22.8l-80.55-80.611c-30.34-30.401-30.35-79.851-.02-110.263L812.961 6.164c8.219-8.219 21.534-8.219 29.754 0 8.219 8.22 8.219 21.545 0 29.755L560.686 317.865c-13.952 13.993-13.973 36.792 0 50.785l80.55 80.581c14.014 13.994 36.844 14.014 50.858.02L974.08 167.245c8.22-8.22 21.535-8.22 29.755 0 8.219 8.22 8.219 21.535 0 29.754L721.848 479.006c-15.185 15.196-35.159 22.8-55.152 22.8z"/><path fill="#5065A1" d="M714.246 370.551a20.976 20.976 0 0 1-14.878-6.164c-8.22-8.21-8.22-21.536 0-29.755l223.485-223.547c8.22-8.22 21.536-8.22 29.754 0 8.221 8.21 8.221 21.535 0 29.754L729.123 364.387a20.977 20.977 0 0 1-14.877 6.164zM660.512 316.817a20.976 20.976 0 0 1-14.878-6.165c-8.22-8.22-8.22-21.535 0-29.754L869.16 57.37c8.22-8.22 21.535-8.22 29.754 0 8.22 8.22 8.22 21.535 0 29.754L675.39 310.652a20.977 20.977 0 0 1-14.877 6.165zM141.25 959.903c-24.083 0-47.405-9.618-64.481-26.694-17.938-17.877-27.658-42.678-26.662-68.056 1.007-25.377 12.669-49.358 31.995-65.795l285.942-243.563c11.374-9.74 59.694-57.03 72.958-70.265l103.43-103.39c8.22-8.22 21.535-8.22 29.755 0 8.22 8.22 8.22 21.545 0 29.754L470.746 515.295c-11.528 11.506-62.129 61.172-75.383 72.516L109.38 831.412c-10.562 8.981-16.675 21.556-17.22 35.406-.544 13.85 4.541 26.856 14.343 36.618 9.812 9.821 22.901 14.691 36.69 14.342 13.839-.555 26.384-6.657 35.353-17.2l243.613-285.89c11.548-13.624 62.899-65.838 72.515-75.454l103.452-103.442c8.22-8.219 21.534-8.219 29.754 0 8.22 8.22 8.22 21.546 0 29.755l-103.44 103.42c-13.779 13.809-60.66 61.707-70.215 72.968L210.59 927.847c-16.407 19.295-40.367 30.966-65.693 31.974a72.442 72.442 0 0 1-3.648.082z"/><path fill="#5065A1" d="M120.353 777.678C42.74 692.238 0 581.625 0 466.225c0-69.731 25.85-157.566 51.464-213.674l38.282 17.487c-23.723 51.957-47.663 132.774-47.663 196.187 0 104.92 38.857 205.484 109.42 283.138l-31.15 28.315zM463.184 929.368c-84.948 0-167.995-23.179-240.182-67.05l21.844-35.96c65.6 39.864 141.106 60.926 218.338 60.926 67.872 0 135.312-16.52 194.964-47.754l19.52 37.275c-65.651 34.398-139.832 52.563-214.484 52.563zM780.638 803.426l-28.81-30.658c85.4-80.324 132.436-189.191 132.436-306.543 0-60.392-12.495-118.678-37.131-173.234l38.344-17.323c27.123 60.043 40.87 124.154 40.87 190.557 0 129.086-51.741 248.842-145.71 337.201zM157.668 176.43l-30.534-28.974C215.502 54.32 334.848 3.02 463.184 3.02c97.77 0 191.245 30.104 270.316 87.064l-24.576 34.152c-71.88-51.772-156.867-79.132-245.74-79.132-116.675 0-225.181 46.635-305.516 131.325zM278.442 634.044c-41.836-46.007-64.881-105.619-64.881-167.819h42.083c0 51.72 19.15 101.263 53.93 139.504l-31.132 28.315zM463.205 715.787c-26.857 0-53.242-4.212-78.434-12.535l13.192-39.947c52.306 17.262 112.451 12.535 161.265-13.11l19.561 37.276c-35.281 18.514-75.258 28.316-115.584 28.316zM634.25 647.956l-28.809-30.659c42.083-39.596 65.283-93.27 65.283-151.072h42.083c0 68.53-28.623 134.777-78.557 181.73zM312.594 323.372l-30.514-28.974c47.641-50.18 111.968-77.817 181.125-77.817 44.723 0 88.646 11.98 126.969 34.655l-21.412 36.227c-31.871-18.843-68.365-28.799-105.557-28.799-57.506 0-110.994 22.984-150.61 64.708z"/></g></svg>