<svg version="1.1" id="Layer_1" xmlns="http://www.w3.org/2000/svg" x="0" y="0" viewBox="0 0 463 463" style="enable-background:new 0 0 463 463" xml:space="preserve"><path d="M183.5 167a7.5 7.5 0 0 0 7.5-7.5v-8a7.5 7.5 0 0 0-15 0v8a7.5 7.5 0 0 0 7.5 7.5zM279.5 167a7.5 7.5 0 0 0 7.5-7.5v-8a7.5 7.5 0 0 0-15 0v8a7.5 7.5 0 0 0 7.5 7.5zM203.414 215.902c6.942 4.511 17.179 7.098 28.086 7.098s21.145-2.587 28.086-7.098a7.5 7.5 0 0 0-8.172-12.578c-4.505 2.928-11.95 4.676-19.914 4.676s-15.408-1.748-19.914-4.676a7.499 7.499 0 0 0-10.375 2.203 7.499 7.499 0 0 0 2.203 10.375z"/><path d="M390.52 295.267 303 266.094v-27.405l1.376-.813C323.266 226.714 335 205.402 335 182.257v-36.899a14.18 14.18 0 0 0 8-12.814V97.47c21.202-38.689 8.326-89.672 7.759-91.856a7.5 7.5 0 0 0-9.204-5.358c-21.249 5.706-48.183 3.734-74.23 1.829C228.721-.74 188.803-3.66 162.746 17.698c-5.827 4.776-9.845 10.37-12.614 15.759l-5.879.979c-22.818 3.804-38.289 25.462-34.486 48.281l8.829 52.971c.752 4.514 3.523 8.294 7.601 10.371.589.3 1.193.545 1.804.759v35.438c0 23.145 11.734 44.457 30.624 55.619l1.376.813v27.405L72.48 295.266A47.442 47.442 0 0 0 40 340.33v91.17c0 17.369 14.131 31.5 31.5 31.5h320c17.369 0 31.5-14.131 31.5-31.5v-91.17a47.44 47.44 0 0 0-32.48-45.063zM124.562 80.253c-2.328-13.972 6.589-27.266 20.121-30.6-.576 3.201-.668 5.304-.678 5.578a7.499 7.499 0 0 0 6.744 7.73 7.502 7.502 0 0 0 8.149-6.23l1.287-7.729c1.484-5.662 4.785-13.731 12.069-19.701 21.426-17.563 56.666-14.984 93.976-12.255 24.378 1.783 49.498 3.622 71.474-.542 2.59 14.729 6.382 49.324-8.687 75.225A7.497 7.497 0 0 0 328 95.5v35.865l-13.25-6.625a6.746 6.746 0 0 1-3.75-6.067v-8.889C311 97.772 301.228 88 289.217 88H173.783C161.772 88 152 97.772 152 109.783v8.889a6.746 6.746 0 0 1-3.75 6.067l-15.022 7.511-8.666-51.997zM143 182.257v-38.122l11.958-5.979c7.428-3.714 12.042-11.18 12.042-19.484v-8.889a6.79 6.79 0 0 1 6.783-6.783h115.434a6.79 6.79 0 0 1 6.783 6.783v8.889c0 8.304 4.614 15.77 12.042 19.484L320 144.135v38.122c0 17.865-8.911 34.229-23.255 42.705l-41.331 24.423c-7.324 4.328-15.591 6.615-23.92 6.615-8.317 0-16.584-2.288-23.908-6.615l-41.331-24.423C151.911 216.486 143 200.122 143 182.257zM239.5 296h-16c-4.638 0-8.795 2.058-11.638 5.296l-23.227-11.613L175 269.229v-21.677l24.955 14.746c9.633 5.693 20.539 8.702 31.551 8.702 11 0 21.905-3.009 31.539-8.701L288 247.552v21.677l-13.643 20.464-23.215 11.607c-2.843-3.241-7.002-5.3-11.642-5.3zm.5 15.5v16a.5.5 0 0 1-.5.5h-16a.5.5 0 0 1-.5-.5v-15.499c.012-.183.011-.366.01-.548a.495.495 0 0 1 .49-.453h16a.5.5 0 0 1 .5.5zm-32 4.635v6.729l-32.276 16.139c-.093.047-.25.125-.486-.021-.238-.148-.238-.322-.238-.426v-38.111c0-.104 0-.279.237-.426.237-.146.394-.068.486-.021L208 316.135zm47 .007 32.291-16.146c.093-.046.25-.125.486.021.237.147.237.321.237.426v38.111c0 .104 0 .279-.237.426-.237.146-.394.068-.486.021L255 322.857v-6.715zm-30.999 131.86H119v-56.5a7.5 7.5 0 0 0-15 0V448H71.5c-9.098 0-16.5-7.402-16.5-16.5v-91.17a32.459 32.459 0 0 1 22.223-30.832l87.215-29.071 4.113 6.169c-.406.205-.807.421-1.199.663-4.603 2.845-7.351 7.774-7.351 13.186v38.111c0 5.411 2.748 10.34 7.351 13.186a15.457 15.457 0 0 0 8.139 2.329c2.364 0 4.736-.547 6.941-1.65l29.431-14.715c2.843 3.238 7 5.296 11.638 5.296h.5v105zM408 431.5c0 9.098-7.402 16.5-16.5 16.5H359v-56.5a7.5 7.5 0 0 0-15 0V448H239V343h.5c4.64 0 8.799-2.06 11.642-5.301l29.441 14.721a15.497 15.497 0 0 0 6.941 1.65c2.822 0 5.634-.781 8.139-2.329 4.603-2.845 7.351-7.774 7.351-13.186v-38.111c0-5.411-2.748-10.34-7.351-13.186a15.933 15.933 0 0 0-1.211-.668l4.109-6.164 87.215 29.071A32.46 32.46 0 0 1 408 340.33v91.17z"/><path d="M311.5 376h-40c-8.547 0-15.5 6.953-15.5 15.5v24c0 8.547 6.953 15.5 15.5 15.5h40c8.547 0 15.5-6.953 15.5-15.5v-24c0-8.547-6.953-15.5-15.5-15.5zm.5 39.5a.5.5 0 0 1-.5.5h-40a.5.5 0 0 1-.5-.5v-24a.5.5 0 0 1 .5-.5h40a.5.5 0 0 1 .5.5v24z"/></svg>