<?xml version="1.0" encoding="UTF-8"?>
<!DOCTYPE svg PUBLIC "-//W3C//DTD SVG 1.1//EN" "http://www.w3.org/Graphics/SVG/1.1/DTD/svg11.dtd">
<!-- Creator: CorelDRAW -->
<svg xmlns="http://www.w3.org/2000/svg" xml:space="preserve" width="210mm" height="297mm" version="1.1" style="shape-rendering:geometricPrecision; text-rendering:geometricPrecision; image-rendering:optimizeQuality; fill-rule:evenodd; clip-rule:evenodd"
viewBox="0 0 21000 29700"
 xmlns:xlink="http://www.w3.org/1999/xlink"
 xmlns:xodm="http://www.corel.com/coreldraw/odm/2003">
 <defs>
  <style type="text/css">
   <![CDATA[
    .str0 {stroke:#333333;stroke-width:18;stroke-linejoin:bevel;stroke-miterlimit:22.9256}
    .fil0 {fill:none}
   ]]>
  </style>
 </defs>
 <g id="Layer_x0020_1">
  <metadata id="CorelCorpID_0Corel-Layer"/>
  <g id="Chef_x0020_kitchen_x0020_wall_x0020_sign--kitchen-clipart-cooking-food-clipart.dxf">
   <path class="fil0 str0" d="M14885.87 13712.18c222.15,354.54 373.23,738.19 239.69,1130.43 0,0 0,0 0,0 -133.54,392.25 -482.35,690 -895.57,720.71 0,0 0,0 0,0 -421.21,31.31 -710.9,-157.13 -1062.05,-387.72 0,0 0,0 0,0 -113.54,321.62 -188.14,532.9 -223.75,633.82 0,0 0,0 0,0 -84.9,240.47 -159.53,208.06 -358.49,11.96 0,0 0,0 0,0 -111.43,403.28 -184.6,882.6 -219.52,1437.97 0,0 0,0 0,0 470.44,-117.77 701.62,-63.71 693.54,162.2 0,0 0,0 0,0 -34.58,236.16 43.56,198.52 126.72,347.42 0,0 0,0 0,0 87.45,156.44 -15.24,240.01 -308.07,250.66 0,0 0,0 0,0 81.5,165.69 145.12,354.43 190.88,566.23 0,0 0,0 0,0 318.14,-101.79 477.22,-152.7 477.22,-152.7 0,0 0,0 0,0 67.65,-517.32 144.14,-1550.78 668.3,-1832.03 0,0 0,0 0,0 366.94,-197 1170.17,-458.96 2409.62,-785.76 0,0 0,0 0,0 338.11,-89.15 371.6,-134.89 590.37,192.75 0,0 0,0 0,0 497.94,745.72 783.64,1639.39 856.96,2680.97 0,0 0,0 0,0 17.36,246.66 54.78,695.47 -275.11,738.18 0,0 0,0 0,0 -1454.95,411.44 -2182.43,617.17 -2182.43,617.17 0,0 0,0 0,0 -467.25,93.65 -826.76,48.54 -1153.25,-306.43 0,0 0,0 0,0 -541.92,-588.93 -812.88,-883.41 -812.88,-883.41 0,0 0,0 0,0 -343.63,91.18 -515.45,136.76 -515.45,136.76 0,0 0,0 0,0 3.57,700.26 -108.56,1263.61 -336.35,1690.04 0,0 0,0 0,0 -386.01,722.64 -985.59,639.86 -1200.48,-159.11 0,0 0,0 0,0 -85.55,-317.92 -115.61,-676.48 -90.17,-1075.66 0,0 0,0 0,0 0,0 -827.18,234.39 -2481.52,703.15 0,0 0,0 0,0 -75.42,220.32 -217.75,279.84 -414.7,336.4 0,0 0,0 0,0 -319.33,91.74 -1180.74,339.23 -2584.23,742.41 0,0 0,0 0,0 -256.05,73.55 -454.25,9.17 -549.85,-273.22 0,0 0,0 0,0 -88.42,-261.16 4.46,-457.56 260.16,-529.02 0,0 0,0 0,0 1451.15,-405.79 2313.92,-647.09 2588.24,-723.78 0,0 0,0 0,0 199.68,-55.82 410.89,-89.34 592.25,43.17 0,0 0,0 0,0 1700.98,-479.37 2551.47,-719.06 2551.47,-719.06 0,0 0,0 0,0 -9.1,-524.45 36.49,-883.96 136.77,-1078.53 0,0 0,0 0,0 -128.85,107.54 -230.66,183.9 -305.41,229.06 0,0 0,0 0,0 -180.42,272.58 -481.02,441.64 -807.66,454.26 0,0 0,0 0,0 -326.64,12.61 -639.37,-132.77 -840.28,-390.63 0,0 0,0 0,0 -597.3,681.42 -1041.65,745.04 -1333.04,190.87 0,0 0,0 0,0 -114.42,-291.54 -118.58,-617.11 -12.47,-976.67 0,0 0,0 0,0 31.13,-105.59 63.43,-185.32 9.31,-295.93 0,0 0,0 0,0 -203,455.92 -350.42,871.62 -442.23,1247.09 0,0 0,0 0,0 -19.13,418.35 -233.44,1218.98 -678.49,534.07 0,0 0,0 0,0 -143.78,-221.28 -198.66,-520.19 -164.59,-896.76 0,0 0,0 0,0 -1090.98,1295.05 -2119.62,1516.69 -3085.92,664.93 0,0 0,0 0,0 -680.93,-695.4 -1022.4,-1497.11 -1024.42,-2405.14 0,0 0,0 0,0 12.26,-1544.02 364.33,-2763.55 1056.21,-3658.57 0,0 0,0 0,0 318.47,-379.13 687.51,-553.06 1107.11,-521.76 0,0 0,0 0,0 680.38,35.06 1171.79,145.05 1474.23,329.94 0,0 0,0 0,0 378.54,231.48 354.16,585.54 288.25,993.52 0,0 0,0 0,0 5.88,501.83 9.73,830.08 11.54,984.71 0,0 0,0 0,0 3.88,330.45 -347.12,401.63 -620.34,368.49 0,0 0,0 0,0 -121.52,-14.68 -178.52,-108.45 -324.97,-145.77 0,0 0,0 0,0 -235.45,-59.98 -194.23,-171.97 -203.72,-391.38 0,0 0,0 0,0 -12.97,-296.5 -2.94,-548.92 30.07,-757.17 0,0 0,0 0,0 175.19,-1104.9 -730.68,-914.44 -1094.11,-19.04 0,0 0,0 0,0 -670.1,1612.38 -743.78,2901.92 -221.07,3868.59 0,0 0,0 0,0 328.07,740.1 786.19,1009.46 1374.34,808.09 0,0 0,0 0,0 263.67,-75.86 645.43,-461.86 1145.29,-1158.01 0,0 0,0 0,0 78.48,27.57 117.72,41.36 117.72,41.36 0,0 0,0 0,0 19.92,-1170.94 92.05,-2200.66 216.41,-3089.15 0,0 0,0 0,0 -231.04,13.75 -329.66,-54.12 -295.88,-203.63 0,0 0,0 0,0 193.04,-591.75 289.56,-887.61 289.56,-887.61 0,0 0,0 0,0 -1801.46,-1253.99 -659.17,-3656.11 1005.37,-3047.75 0,0 0,0 0,0 162.04,-739.72 684.76,-1281.35 1437.22,-1366.23 0,0 0,0 0,0 752.48,-84.89 1491.41,343.98 1890.55,990.81 0,0 0,0 0,0 999.82,-252.23 1659.42,140.14 1978.79,1177.1 0,0 0,0 0,0 693.72,73.99 1305.28,417.08 1563.68,1161.7 0,0 0,0 0,0 228.73,659.09 171.81,1382.17 -259.37,1930.64z"/>
   <path class="fil0 str0" d="M14328.7 13214.01c1014.58,1296.14 569.42,2706.25 -1037.12,1609.77 0,0 0,0 0,0 73.92,-358.14 -173.93,-687.48 -743.51,-988.05 0,0 0,0 0,0 -350.63,-184.89 -457.9,-272.33 -93.39,-502.47 0,0 0,0 0,0 230.31,-145.36 488.07,-231.78 773.25,-259.26 0,0 0,0 0,0 -461.55,-280.31 -941.57,198.07 -1286.03,226.52 0,0 0,0 0,0 -726.75,60.27 -1659.82,-228.48 -1852.29,-1004 0,0 0,0 0,0 -61.71,-248.5 -51.66,-582.15 30.17,-1000.93 0,0 0,0 0,0 -133.99,176.29 -218.83,369.3 -254.51,579.01 0,0 0,0 0,0 -51.54,292.33 -153.73,502.7 -306.54,631.11 0,0 0,0 0,0 -237.63,199.55 -957.78,54.19 -1157.31,-147.15 0,0 0,0 0,0 -223.41,-225.29 -265.68,-590.24 -126.83,-1094.78 0,0 0,0 0,0 -201.92,219.64 -297.38,606.71 -286.37,1161.21 0,0 0,0 0,0 -165.55,-5.29 -332.04,31.82 -499.49,111.35 0,0 0,0 0,0 -1623.49,-712.37 -652.01,-3171.15 719.05,-2338.3 0,0 0,0 0,0 57.07,360.69 190.66,651.25 400.79,871.69 0,0 0,0 0,0 -754.01,-1903.47 1501.47,-3336.72 2704.19,-1469.81 0,0 0,0 0,0 -330.85,306.71 -598.08,739.39 -801.7,1298.02 0,0 0,0 0,0 654.02,-1393.37 2380.18,-1776.92 2755.1,-178.15 0,0 0,0 0,0 -232.6,81.55 -431.98,198.21 -598.14,349.97 0,0 0,0 0,0 671.2,-337.51 1486.45,-168.17 1967.71,408.74 0,0 0,0 0,0 481.25,576.9 501.66,1409.31 49.28,2009.11 0,0 0,0 0,0 -100,-119.52 -218.76,-210.72 -356.31,-273.6z"/>
   <path class="fil0 str0" d="M8026.35 12657.3c1919.3,195.74 3504.69,759.91 4756.16,1692.5 0,0 0,0 0,0 254.13,188.19 280.65,487.24 79.58,897.15 0,0 0,0 0,0 -240.4,-198.72 -543.69,-367.33 -909.89,-505.83 0,0 0,0 0,0 589.63,475.08 884.44,712.62 884.44,712.62 0,0 0,0 0,0 -84.86,193.05 -127.28,289.56 -127.28,289.56 0,0 0,0 0,0 -1689.25,-1203.24 -3456,-1864.79 -5300.25,-1984.59 0,0 0,0 0,0 -183.66,-11.92 -222.48,32.03 -169.9,-172.76 0,0 0,0 0,0 27.45,-106.87 83.04,-259.48 166.77,-457.81 0,0 0,0 0,0 0,0 405.11,-14.85 1215.3,-44.53 0,0 0,0 0,0 -289.34,-86.41 -670.04,-123.54 -1142.13,-111.36 0,0 0,0 0,0 77.41,-232.46 259.81,-337.45 547.2,-314.95z"/>
   <path class="fil0 str0" d="M14466.26 16945.32c691.45,-203.63 1382.78,-407.61 2074.33,-610.85 0,0 0,0 0,0 56.16,-16.51 115.43,15.83 131.94,72 0,0 0,0 0,0 16.5,56.16 -15.83,115.43 -72,131.94 0,0 0,0 0,0 -691.51,203.24 -1382.81,407.21 -2074.21,610.81 0,0 0,0 0,0 -56.16,16.54 -115.45,-15.77 -131.98,-71.92 0,0 0,0 0,0 -16.54,-56.16 15.77,-115.45 71.92,-131.98z"/>
   <path class="fil0 str0" d="M11815.4 15689.22c-58.3,591.3 -99.67,1103.5 -124.08,1536.59 0,0 0,0 0,0 -483.4,565.21 -880.83,815.25 -1192.25,750.09 0,0 0,0 0,0 -186.87,-39.05 -312.28,-244.04 -337.52,-422.94 0,0 0,0 0,0 -16.06,-114 -35.65,-263.01 129.92,-225.35 0,0 0,0 0,0 417.93,80.9 724.4,-61.21 919.42,-426.32 0,0 0,0 0,0 339.83,-533.32 323.06,-1060.36 -50.3,-1581.14 0,0 0,0 0,0 -249.34,-303.4 -633.77,-328.82 -1153.25,-76.3 0,0 0,0 0,0 -189.17,91.92 -223.39,-53.35 -298.12,115.89 0,0 0,0 0,0 -229.37,519.51 -331.17,1163.78 -305.46,1932.72 0,0 0,0 0,0 6.36,190.46 4.1,392.68 30.81,582.41 0,0 0,0 0,0 30.24,214.8 -270.4,461.45 -399.15,177.98 0,0 0,0 0,0 -139.76,-397.07 -78.25,-975.03 184.55,-1733.89 0,0 0,0 0,0 107.81,-170.75 94.71,-349.12 -39.29,-535.08 0,0 0,0 0,0 -121.39,-168.47 -140.7,-35.67 -302.04,-68.01 0,0 0,0 0,0 -154.05,-30.86 -294.37,-15.71 -420.97,45.45 0,0 0,0 0,0 -215.84,104.3 -89.79,260.62 -184.01,534.88 0,0 0,0 0,0 -340.45,990.75 -510.66,1486.13 -510.66,1486.13 0,0 0,0 0,0 -73.52,-857.17 29.13,-2107.38 307.94,-3750.61 0,0 0,0 0,0 1385.13,240.73 2591.93,669.17 3620.41,1285.28 0,0 0,0 0,0 -29.51,166.93 11.84,291 124.05,372.22z"/>
   <path class="fil0 str0" d="M14861.53 18185.81c680.81,-195.12 1361.58,-390.49 2042.46,-585.38 0,0 0,0 0,0 56.29,-16.1 115.32,16.66 131.44,72.94 0,0 0,0 0,0 16.1,56.28 -16.67,115.31 -72.94,131.43 0,0 0,0 0,0 -680.87,194.88 -1361.61,390.23 -2042.41,585.35 0,0 0,0 0,0 -56.27,16.13 -115.31,-16.62 -131.45,-72.89 0,0 0,0 0,0 -16.13,-56.28 16.63,-115.32 72.9,-131.45z"/>
   <path class="fil0 str0" d="M15045.87 18815.79c676.59,-195.12 1353.07,-390.68 2029.79,-585.4 0,0 0,0 0,0 56.25,-16.18 115.34,16.5 131.53,72.75 0,0 0,0 0,0 16.19,56.26 -16.49,115.35 -72.75,131.54 0,0 0,0 0,0 -676.67,194.7 -1353.11,390.24 -2029.67,585.36 0,0 0,0 0,0 -56.24,16.22 -115.34,-16.43 -131.58,-72.67 0,0 0,0 0,0 -16.21,-56.25 16.44,-115.35 72.68,-131.58z"/>
   <path class="fil0 str0" d="M17234.17 18860.45c56.17,-16.48 115.42,15.88 131.91,72.05 0,0 0,0 0,0 16.48,56.18 -15.89,115.42 -72.06,131.91 0,0 0,0 0,0 -663.91,194.85 -1327.67,390.23 -1991.5,585.35 0,0 0,0 0,0 -56.16,16.51 -115.43,-15.83 -131.94,-72 0,0 0,0 0,0 -16.51,-56.15 15.83,-115.43 72,-131.93 0,0 0,0 0,0 663.86,-195.13 1327.65,-390.54 1991.59,-585.38z"/>
   <path class="fil0 str0" d="M12533 18228.99c75.66,304.56 113.52,456.84 113.52,456.84 0,0 0,0 0,0 0,0 -88.01,22.26 -264.05,66.8 0,0 0,0 0,0 -4.24,303.3 -6.36,454.95 -6.36,454.95 0,0 0,0 0,0 209.96,-57.26 314.94,-85.88 314.94,-85.88 0,0 0,0 0,0 87.18,477.23 32,948.81 -165.51,1414.66 0,0 0,0 0,0 -92.61,218.53 -224.95,216.55 -248.14,-21.3 0,0 0,0 0,0 -80.24,-819.67 -62.01,-1572.79 54.41,-2259.26 0,0 0,0 0,0 50.65,-298.59 118,-361.73 201.19,-26.81z"/>
   <path class="fil0 str0" d="M10766.68 15737.23c38.46,405.25 -27.53,776.13 -198.19,1112.58 0,0 0,0 0,0 -104.09,205.35 -184.59,288.81 -406.71,108.51 0,0 0,0 0,0 7.07,-317.8 87.77,-739.83 242.06,-1266.11 0,0 0,0 0,0 121.59,-414.82 320.27,-403.85 362.84,45.02z"/>
   <path class="fil0 str0" d="M16707.01 16983.19c56.33,-15.96 115.29,16.95 131.25,73.27 0,0 0,0 0,0 15.95,56.33 -16.96,115.29 -73.27,131.25 0,0 0,0 0,0 -674.41,191.14 -1348.94,381.77 -2023.41,572.66 0,0 0,0 0,0 -56.33,15.93 -115.27,-16.99 -131.21,-73.32 0,0 0,0 0,0 -15.93,-56.33 16.99,-115.28 73.32,-131.22 0,0 0,0 0,0 674.44,-190.88 1348.96,-381.5 2023.32,-572.64z"/>
  </g>
 </g>
</svg>
