<?xml version="1.0" encoding="iso-8859-1"?>
<!-- Generator: Adobe Illustrator 19.0.0, SVG Export Plug-In . SVG Version: 6.00 Build 0)  -->
<svg version="1.1" id="Layer_1" xmlns="http://www.w3.org/2000/svg" xmlns:xlink="http://www.w3.org/1999/xlink" x="0px" y="0px"
	 viewBox="0 0 463 463" style="enable-background:new 0 0 463 463;" xml:space="preserve">
<g>
	<g>
		<g>
			<path d="M183.5,167c4.142,0,7.5-3.358,7.5-7.5v-8c0-4.142-3.358-7.5-7.5-7.5c-4.142,0-7.5,3.358-7.5,7.5v8
				C176,163.642,179.358,167,183.5,167z"/>
			<path d="M279.5,167c4.142,0,7.5-3.358,7.5-7.5v-8c0-4.142-3.358-7.5-7.5-7.5c-4.142,0-7.5,3.358-7.5,7.5v8
				C272,163.642,275.358,167,279.5,167z"/>
			<path d="M203.414,215.902c6.942,4.511,17.179,7.098,28.086,7.098s21.145-2.587,28.086-7.098
				c3.473-2.257,4.459-6.902,2.203-10.375c-2.257-3.474-6.902-4.459-10.375-2.203c-4.505,2.928-11.95,4.676-19.914,4.676
				s-15.408-1.748-19.914-4.676c-3.474-2.257-8.118-1.271-10.375,2.203C198.954,209,199.94,213.645,203.414,215.902z"/>
			<path d="M390.52,295.267L303,266.094v-27.405l1.376-0.813C323.266,226.714,335,205.402,335,182.257v-36.899
				c0.417-0.206,0.83-0.425,1.231-0.674c4.238-2.619,6.769-7.157,6.769-12.14V97.47c21.202-38.689,8.326-89.672,7.759-91.856
				c-0.503-1.936-1.758-3.59-3.486-4.596c-1.729-1.007-3.788-1.28-5.718-0.762c-21.249,5.706-48.183,3.734-74.23,1.829
				C228.721-0.74,188.803-3.66,162.746,17.698c-5.827,4.776-9.845,10.37-12.614,15.759l-5.879,0.979
				c-22.818,3.804-38.289,25.462-34.486,48.281l8.829,52.971c0.752,4.514,3.523,8.294,7.601,10.371
				c0.589,0.3,1.193,0.545,1.804,0.759v35.438c0,23.145,11.734,44.457,30.624,55.619l1.376,0.813v27.405L72.48,295.266
				C53.052,301.743,40,319.852,40,340.33v91.17c0,17.369,14.131,31.5,31.5,31.5h320c17.369,0,31.5-14.131,31.5-31.5v-91.17
				C423,319.852,409.948,301.743,390.52,295.267z M124.562,80.253c-2.328-13.972,6.589-27.266,20.121-30.6
				c-0.576,3.201-0.668,5.304-0.678,5.578c-0.142,3.952,2.81,7.335,6.744,7.73c3.933,0.394,7.5-2.33,8.149-6.23l1.287-7.729
				c1.484-5.662,4.785-13.731,12.069-19.701c21.426-17.563,56.666-14.984,93.976-12.255c24.378,1.783,49.498,3.622,71.474-0.542
				c2.59,14.729,6.382,49.324-8.687,75.225C328.351,92.873,328,94.175,328,95.5v35.865l-13.25-6.625
				c-2.313-1.156-3.75-3.481-3.75-6.067v-8.889C311,97.772,301.228,88,289.217,88H173.783C161.772,88,152,97.772,152,109.783v8.889
				c0,2.586-1.437,4.911-3.75,6.067l-15.022,7.511L124.562,80.253z M143,182.257v-38.122l11.958-5.979
				c7.428-3.714,12.042-11.18,12.042-19.484v-8.889c0-3.74,3.043-6.783,6.783-6.783h115.434c3.74,0,6.783,3.043,6.783,6.783v8.889
				c0,8.304,4.614,15.77,12.042,19.484L320,144.135v38.122c0,17.865-8.911,34.229-23.255,42.705l-41.331,24.423
				c-7.324,4.328-15.591,6.615-23.92,6.615c-8.317,0-16.584-2.288-23.908-6.615l-41.331-24.423
				C151.911,216.486,143,200.122,143,182.257z M239.5,296h-16c-4.638,0-8.795,2.058-11.638,5.296l-23.227-11.613L175,269.229
				v-21.677l24.955,14.746c9.633,5.693,20.539,8.702,31.551,8.702c11,0,21.905-3.009,31.539-8.701L288,247.552v21.677
				l-13.643,20.464L251.142,301.3C248.299,298.059,244.14,296,239.5,296z M240,311.5v16c0,0.275-0.224,0.5-0.5,0.5h-16
				c-0.276,0-0.5-0.225-0.5-0.5v-15.499c0.012-0.183,0.011-0.366,0.01-0.548c0.025-0.253,0.231-0.453,0.49-0.453h16
				C239.776,311,240,311.225,240,311.5z M208,316.135v6.729l-32.276,16.139c-0.093,0.047-0.25,0.125-0.486-0.021
				C175,338.834,175,338.66,175,338.556v-38.111c0-0.104,0-0.279,0.237-0.426c0.237-0.146,0.394-0.068,0.486-0.021L208,316.135z
				 M255,316.142l32.291-16.146c0.093-0.046,0.25-0.125,0.486,0.021c0.237,0.147,0.237,0.321,0.237,0.426v38.111
				c0,0.104,0,0.279-0.237,0.426c-0.237,0.146-0.394,0.068-0.486,0.021L255,322.857V316.142z M224.001,448.002H119v-56.5
				c0-4.142-3.358-7.5-7.5-7.5c-4.142,0-7.5,3.358-7.5,7.5V448H71.5c-9.098,0-16.5-7.402-16.5-16.5v-91.17
				c0-14.011,8.931-26.401,22.223-30.832l87.215-29.071l4.113,6.169c-0.406,0.205-0.807,0.421-1.199,0.663
				c-4.603,2.845-7.351,7.774-7.351,13.186v38.111c0,5.411,2.748,10.34,7.351,13.186c2.505,1.548,5.317,2.329,8.139,2.329
				c2.364,0,4.736-0.547,6.941-1.65l29.431-14.715c2.843,3.238,7,5.296,11.638,5.296h0.5V448.002z M408,431.5
				c0,9.098-7.402,16.5-16.5,16.5H359v-56.5c0-4.142-3.358-7.5-7.5-7.5c-4.142,0-7.5,3.358-7.5,7.5V448H239V343h0.5
				c4.64,0,8.799-2.06,11.642-5.301l29.441,14.721c2.206,1.103,4.577,1.65,6.941,1.65c2.822,0,5.634-0.781,8.139-2.329
				c4.603-2.845,7.351-7.774,7.351-13.186v-38.111c0-5.411-2.748-10.34-7.351-13.186c-0.396-0.244-0.801-0.462-1.211-0.668
				l4.109-6.164l87.215,29.071C399.069,313.929,408,326.319,408,340.33V431.5z"/>
			<path d="M311.5,376h-40c-8.547,0-15.5,6.953-15.5,15.5v24c0,8.547,6.953,15.5,15.5,15.5h40c8.547,0,15.5-6.953,15.5-15.5v-24
				C327,382.953,320.047,376,311.5,376z M312,415.5c0,0.275-0.224,0.5-0.5,0.5h-40c-0.276,0-0.5-0.225-0.5-0.5v-24
				c0-0.275,0.224-0.5,0.5-0.5h40c0.276,0,0.5,0.225,0.5,0.5V415.5z"/>
		</g>
	</g>
</g>
<g>
</g>
<g>
</g>
<g>
</g>
<g>
</g>
<g>
</g>
<g>
</g>
<g>
</g>
<g>
</g>
<g>
</g>
<g>
</g>
<g>
</g>
<g>
</g>
<g>
</g>
<g>
</g>
<g>
</g>
</svg>
